<svg viewBox="0 0 16.6426 16.7119" xmlns="http://www.w3.org/2000/svg" xmlns:xlink="http://www.w3.org/1999/xlink" width="16.642578" height="16.711914" fill="none" customFrame="#000000">
	<path id="circle2017" d="M7.46989 0C3.35332 0 0 3.3661 0 7.49838C0 11.6306 3.35332 15.0033 7.46989 15.0033C9.2282 15.0033 10.8453 14.3848 12.1234 13.3578L15.2349 16.4795C15.3919 16.6306 15.6016 16.7139 15.8191 16.7117C16.0366 16.7095 16.2446 16.6219 16.3985 16.4676C16.5524 16.3133 16.64 16.1047 16.6426 15.8863C16.6451 15.668 16.5623 15.4574 16.412 15.2995L13.3005 12.1762C14.3245 10.8913 14.9414 9.26544 14.9414 7.49838C14.9414 3.3661 11.5865 0 7.46989 0ZM7.46989 1.66669C10.6892 1.66669 13.2794 4.26686 13.2794 7.49838C13.2794 10.7299 10.6892 13.3366 7.46989 13.3366C4.25064 13.3366 1.66034 10.7299 1.66034 7.49838C1.66034 4.26686 4.25064 1.66669 7.46989 1.66669Z" fill="rgb(68.3652,49.663,150.875)" fill-rule="nonzero" />
</svg>
